<?xml version="1.0" standalone="no"?><!DOCTYPE svg PUBLIC "-//W3C//DTD SVG 1.1//EN" "http://www.w3.org/Graphics/SVG/1.1/DTD/svg11.dtd"><svg t="1637676374905" class="icon" viewBox="0 0 1024 1024" version="1.1" xmlns="http://www.w3.org/2000/svg" p-id="1475" xmlns:xlink="http://www.w3.org/1999/xlink" width="200" height="200"><defs><style type="text/css"></style></defs><path d="M512.00600029 959.003C265.13299971 959.003 64.99999971 758.843 64.99999971 512.00299971S265.13299971 64.997 512.00600029 64.997 959.00000029 265.13 959.00000029 512.00299971c0 246.879-200.15399971 447.00000029-446.994 447.00000029z m244.58099942-472.30499971a16.821 16.821 0 0 0-16.81799942-16.81800029h-185.59200058V284.28800029a16.81800029 16.81800029 0 0 0-16.81799942-16.81800029H486.71a16.81800029 16.81800029 0 0 0-16.821 16.81800029v185.553H284.291a16.81800029 16.81800029 0 0 0-16.81800029 16.821v50.607a16.81800029 16.81800029 0 0 0 16.81800029 16.81799942h185.55599971v185.625a16.81800029 16.81800029 0 0 0 16.81800029 16.821h50.607a16.821 16.821 0 0 0 16.821-16.821v-185.53799971h185.625a16.81800029 16.81800029 0 0 0 16.81499971-16.821l0.054-50.65499971z" p-id="1476"></path></svg>