<?xml version="1.0" standalone="no"?><!DOCTYPE svg PUBLIC "-//W3C//DTD SVG 1.1//EN" "http://www.w3.org/Graphics/SVG/1.1/DTD/svg11.dtd"><svg t="1631456374477" class="icon" viewBox="0 0 1024 1024" version="1.1" xmlns="http://www.w3.org/2000/svg" p-id="2791" xmlns:xlink="http://www.w3.org/1999/xlink" width="200" height="200"><defs><style type="text/css"></style></defs><path d="M512 29.36115105c-265.45136692 0-482.63884895 217.18748204-482.63884895 482.63884895s217.18748204 482.63884895 482.63884895 482.63884895 482.63884895-217.18748204 482.63884895-482.63884895-217.18748204-482.63884895-482.63884895-482.63884895z m0 128.70369305c194.66433574 0 353.9351559 159.27082015 353.9351559 353.9351559 0 16.08796163-1.60879617 32.17592326-3.21759233 48.2638849h-143.18285854c-16.08796163 0-28.95833093 11.26157314-32.17592324 27.34953478-12.87036929 83.65740049-86.87499281 149.61804318-175.35878179 149.61804316s-162.48841249-65.96064269-175.35878179-149.61804316c-1.60879617-16.08796163-16.08796163-27.34953477-32.17592324-27.34953478h-143.18285854c-1.60879617-16.08796163-3.21759233-32.17592326-3.21759233-48.2638849 0-194.66433574 159.27082015-353.9351559 353.9351559-353.9351559z m-37.00231174 472.98607197c38.61110791 20.91435011 88.48378899 4.82638849 109.39813908-33.78471943 30.5671271-56.30786571 88.48378899-304.06247485 74.00462351-310.49765948-14.47916546-8.04398081-186.62035492 178.57637411-215.57868586 236.49303598-22.52314628 38.61110791-8.04398081 86.87499281 32.17592327 107.78934293z" p-id="2792"></path></svg>