<?xml version="1.0" standalone="no"?><!DOCTYPE svg PUBLIC "-//W3C//DTD SVG 1.1//EN" "http://www.w3.org/Graphics/SVG/1.1/DTD/svg11.dtd"><svg t="1633595650452" class="icon" viewBox="0 0 1024 1024" version="1.1" xmlns="http://www.w3.org/2000/svg" p-id="1054" xmlns:xlink="http://www.w3.org/1999/xlink" width="200" height="200"><defs><style type="text/css"></style></defs><path d="M325.33333333 257.93066667a38.4 38.4 0 1 0-40.53333333-65.22666667 431.02933333 431.02933333 0 0 0-197.73866667 294.26133333 38.4 38.4 0 1 0 75.73333334 12.736A354.21866667 354.21866667 0 0 1 325.33333333 257.93066667zM738.13333333 831.49866667a353.67466667 353.67466667 0 0 1-453.54666666-1.06666667 38.4 38.4 0 1 0-49.35466667 58.848A430.51733333 430.51733333 0 0 0 787.2 890.57066667a38.4 38.4 0 1 0-49.06666667-59.072zM936.93866667 486.96533333A425.94133333 425.94133333 0 0 0 866.13333333 313.376a435.54133333 435.54133333 0 0 0-134.88-125.504 38.4 38.4 0 1 0-39.12533333 66.13333333 358.31466667 358.31466667 0 0 1 110.93333333 103.22133334 349.792 349.792 0 0 1 58.112 142.51733333 38.4 38.4 0 1 0 75.73333334-12.736zM157.86666667 562.13333333a123.73333333 123.73333333 0 1 0 123.73333333 123.73333334 123.872 123.872 0 0 0-123.73333333-123.73333334z m0 170.66666667a46.93333333 46.93333333 0 1 1 46.93333333-46.93333333 46.98666667 46.98666667 0 0 1-46.93333333 46.93333333zM866.13333333 562.13333333a123.73333333 123.73333333 0 1 0 123.73333334 123.73333334 123.872 123.872 0 0 0-123.73333334-123.73333334z m0 170.66666667a46.93333333 46.93333333 0 1 1 46.93333334-46.93333333 46.98666667 46.98666667 0 0 1-46.93333334 46.93333333zM512 33.06666667a123.73333333 123.73333333 0 1 0 123.73333333 123.73333333A123.872 123.872 0 0 0 512 33.06666667z m0 170.66666666a46.93333333 46.93333333 0 1 1 46.93333333-46.93333333 46.98666667 46.98666667 0 0 1-46.93333333 46.93333333z" p-id="1055"></path></svg>