<?xml version="1.0" standalone="no"?><!DOCTYPE svg PUBLIC "-//W3C//DTD SVG 1.1//EN" "http://www.w3.org/Graphics/SVG/1.1/DTD/svg11.dtd"><svg t="1633581387825" class="icon" viewBox="0 0 1024 1024" version="1.1" xmlns="http://www.w3.org/2000/svg" p-id="1127" xmlns:xlink="http://www.w3.org/1999/xlink" width="200" height="200"><defs><style type="text/css"></style></defs><path d="M351.99999969 272a40.00000031 40.00000031 0 1 0 0-79.99999969 40.00000031 40.00000031 0 0 0 0 79.99999969z m520.00000031 520.00000031h-247.2A120 120 0 0 0 552.00000031 719.19999969V632h159.99999938a120 120 0 0 0 120-120v-79.99999969a120 120 0 0 0-31.2-80.00000062A120 120 0 0 0 831.99999969 272V192.00000031a120 120 0 0 0-120-120H312.00000031a120 120 0 0 0-120 120v79.99999969a120 120 0 0 0 31.2 79.99999969A120 120 0 0 0 192.00000031 432.00000031v79.99999969a120 120 0 0 0 120 120h159.99999938v87.19999969A120 120 0 0 0 399.2 792.00000031H152a40.00000031 40.00000031 0 0 0 0 79.99999969h247.2a120 120 0 0 0 225.6 0H872a40.00000031 40.00000031 0 1 0 0-79.99999969zM272 192.00000031a40.00000031 40.00000031 0 0 1 40.00000031-40.00000031h399.99999938a40.00000031 40.00000031 0 0 1 40.00000031 40.00000031v79.99999969a40.00000031 40.00000031 0 0 1-40.00000031 40.00000031H312.00000031a40.00000031 40.00000031 0 0 1-40.00000031-40.00000031V192.00000031z m40.00000031 360a40.00000031 40.00000031 0 0 1-40.00000031-40.00000031v-79.99999969a40.00000031 40.00000031 0 0 1 40.00000031-40.00000031h399.99999938a40.00000031 40.00000031 0 0 1 40.00000031 40.00000031v79.99999969a40.00000031 40.00000031 0 0 1-40.00000031 40.00000031H312.00000031z m199.99999969 319.99999969a40.00000031 40.00000031 0 1 1 0-79.99999969 40.00000031 40.00000031 0 0 1 0 79.99999969zM351.99999969 432.00000031a40.00000031 40.00000031 0 1 0 0 79.99999969 40.00000031 40.00000031 0 0 0 0-79.99999969z" p-id="1128"></path></svg>