<?xml version="1.0" standalone="no"?><!DOCTYPE svg PUBLIC "-//W3C//DTD SVG 1.1//EN" "http://www.w3.org/Graphics/SVG/1.1/DTD/svg11.dtd"><svg t="1633532732462" class="icon" viewBox="0 0 1024 1024" version="1.1" xmlns="http://www.w3.org/2000/svg" p-id="1256" xmlns:xlink="http://www.w3.org/1999/xlink" width="200" height="200"><defs><style type="text/css"></style></defs><path d="M812 872V362h-150c-49.47 0-90-40.5-90-90V122H242c-16.5 0-30 13.5-30 30v720c0 16.5 13.5 30 30 30h540c16.53 0 30-13.5 30-30zM632 164.3V272c0 16.5 13.5 30 30 30h107.73L632 164.3z m238.8 160.2c0.9 2.4 1.2 4.8 1.2 7.5v540c0 49.5-40.5 90-90 90H242c-49.47 0-90-40.5-90-90V152c0-49.5 40.53-90 90-90h360c2.73 0 5.1 0.3 7.5 1.2 1.53 0 2.73 0.6 4.23 1.2 3.6 1.5 6.87 3.6 9.57 6.3l240 240c2.73 2.7 4.8 6 6.3 9.6 0.6 1.5 1.2 2.7 1.2 4.2zM302 782a30 30 0 0 1 30-30h360a30 30 0 1 1 0 60H332a30 30 0 0 1-30-30z m30-120a30 30 0 1 1 0-60h180a30 30 0 1 1 0 60h-180z" p-id="1257"></path></svg>