<?xml version="1.0" standalone="no"?><!DOCTYPE svg PUBLIC "-//W3C//DTD SVG 1.1//EN" "http://www.w3.org/Graphics/SVG/1.1/DTD/svg11.dtd"><svg t="1633532727188" class="icon" viewBox="0 0 1024 1024" version="1.1" xmlns="http://www.w3.org/2000/svg" p-id="1124" xmlns:xlink="http://www.w3.org/1999/xlink" width="200" height="200"><defs><style type="text/css"></style></defs><path d="M272.68906665 151.55199999a443.73333333 443.73333333 0 1 1 493.02186668 737.96266667A443.73333333 443.73333333 0 0 1 272.75733333 151.48373333z m37.88800001 681.1648A375.46666667 375.46666667 0 0 0 519.2 895.99999999 375.87626667 375.87626667 0 0 0 894.66666666 520.53333333a375.46666667 375.46666667 0 1 0-584.0896 312.18346666zM709.93706666 281.59999999l48.19626667 48.26453334-146.77333333 146.77333333a103.35573333 103.35573333 0 1 1-48.26453334-48.26453333L709.8688 281.59999999zM500.1536 548.93226666a34.13333333 34.13333333 0 1 0 37.95626665-56.79786667 34.13333333 34.13333333 0 0 0-37.95626665 56.79786667z m292.59093333-167.18506667l-52.08746667 52.08746667c11.33226667 27.51146667 17.27146667 56.9344 17.40799999 86.69866667a236.40746667 236.40746667 0 0 1-34.13333332 121.30986666l50.176 50.176a305.62986667 305.62986667 0 0 0 18.70506667-310.272h-0.06826667zM603.3728 298.12053333A230.26346667 230.26346667 0 0 0 519.2 281.59999999 238.93333333 238.93333333 0 0 0 280.26666666 520.53333333c0.2048 42.8032 11.94666667 84.65066667 34.13333333 121.30986666l-50.10773333 50.176A307.2 307.2 0 0 1 655.73333333 245.62346666l-52.36053333 52.49706667z" p-id="1125"></path></svg>